PathFileType	4	(X/Y/Z)	E:\Qualisys_Data\Carbon_Farble_Plate\Data\Amateur_Runner\S1\T3\S1T3V13_c3d.trc
DataRate	CameraRate	NumFrames	NumMarkers	Units	OrigDataRate	OrigDataStartFrame	OrigNumFrames
200.000000	200.000000	4	39	mm	200.000000	159	318
Frame#	Time	LSHO			RSHO			LICST			RICST			LASIS			LHEEL			RASIS			LTROC			RTROC			SACR			LTH1			LSK4			LTH2			LTH3			RHM5			LSK2			LTH4			RTH1			LTOE			RTH2			RTH3			RTH4			LLEP			RLEP			LSK1			LSK3			RSK1			LHM5			RSK2			LFT1			RSK3			RSK4			LLME			RLME			RTOE			RHEEL			RFT1			RFT2			LFT2			
		X1	Y1	Z1	X2	Y2	Z2	X3	Y3	Z3	X4	Y4	Z4	X5	Y5	Z5	X6	Y6	Z6	X7	Y7	Z7	X8	Y8	Z8	X9	Y9	Z9	X10	Y10	Z10	X11	Y11	Z11	X12	Y12	Z12	X13	Y13	Z13	X14	Y14	Z14	X15	Y15	Z15	X16	Y16	Z16	X17	Y17	Z17	X18	Y18	Z18	X19	Y19	Z19	X20	Y20	Z20	X21	Y21	Z21	X22	Y22	Z22	X23	Y23	Z23	X24	Y24	Z24	X25	Y25	Z25	X26	Y26	Z26	X27	Y27	Z27	X28	Y28	Z28	X29	Y29	Z29	X30	Y30	Z30	X31	Y31	Z31	X32	Y32	Z32	X33	Y33	Z33	X34	Y34	Z34	X35	Y35	Z35	X36	Y36	Z36	X37	Y37	Z37	X38	Y38	Z38	X39	Y39	Z39	

160	0.795	358.0179138183594	1542.40478515625	-568.3040161132812	266.2839965820312	1524.630493164062	-261.1728210449219	301.9755554199219	1063.318359375	-562.0745849609375	293.2115783691406	1083.513549804688	-266.3782043457031	343.8256225585938	1022.318786621094	-536.6575927734375	-260.9351806640625	381.1061096191406	-477.0285949707031	331.0757751464844	1035.9111328125	-274.1951293945312	221.0465240478516	953.2003784179688	-581.982666015625	229.1739959716797	941.26513671875	-243.8863525390625	179.1365509033203	1092.592895507812	-412.1687622070312	304.5042114257812	774.059326171875	-541.8592529296875	-130.7237396240234	446.1575927734375	-503.8586120605469	231.8648376464844	789.2407836914062	-576.8937377929688	275.6963500976562	674.5733642578125	-527.527587890625	633.8124389648438	139.0851593017578	-266.9092712402344	-43.84433746337891	490.0118713378906	-539.9946899414062	198.8033294677734	694.4788818359375	-555.2966918945312	380.459228515625	831.5794677734375	-260.8674926757812	-174.1719665527344	146.2522277832031	-455.8171081542969	308.4352111816406	811.2296142578125	-230.2643280029297	406.1328430175781	733.1473388671875	-265.2813110351562	330.8734130859375	713.6844482421875	-239.6254272460938	168.7303924560547	542.0485229492188	-523.4044799804688	418.2016906738281	570.0316162109375	-285.7599487304688	-5.760539054870605	414.1171264648438	-527.7384033203125	-99.43367004394533	374.5705871582031	-524.4425659179688	456.9440002441406	387.6019897460938	-262.8454284667969	-223.4734344482422	194.4046173095703	-519.172119140625	378.4130249023438	370.1808471679688	-273.8766479492188	-280.4989318847656	366.8130493164062	-444.0105590820312	481.6641540527344	290.6277465820312	-274.503173828125	403.4747314453125	273.7418823242188	-296.8568115234375	-214.4347534179688	340.1964416503906	-520.4358520507812	486.7342834472656	150.7998504638672	-275.0771789550781	676.9901123046875	172.0796356201172	-339.16650390625	439.6813049316406	87.2993392944336	-317.4269104003906	458.3298950195312	66.12794494628906	-350.8133850097656	452.470458984375	63.62834167480469	-297.66943359375	-288.4646606445312	361.5270690917969	-495.2831115722656
161	0.8	374.1827697753906	1540.123168945312	-567.1144409179688	282.860107421875	1521.781982421875	-259.7367248535156	317.63427734375	1060.945434570312	-561.839111328125	309.5048522949219	1081.261352539062	-265.80908203125	359.781494140625	1020.307189941406	-536.4937744140625	-243.02783203125	387.5906066894531	-477.2584533691406	347.19287109375	1033.914428710938	-273.85205078125	237.7168884277344	949.69677734375	-582.1722412109375	244.6933898925781	938.7811889648438	-244.0215148925781	195.0883636474609	1089.660034179688	-411.9734191894531	323.367919921875	771.8211669921875	-541.849365234375	-111.2697525024414	449.5130310058594	-503.3629150390625	250.3708801269531	785.9447631835938	-576.5923461914062	296.3386535644531	672.0441284179688	-527.89599609375	647.7648315429688	136.189697265625	-267.9078369140625	-23.50125503540039	490.9469299316406	-539.6229248046875	218.1372222900391	690.4169921875	-555.2818603515625	395.9717712402344	828.8533935546875	-260.4853820800781	-161.0686187744141	151.2800140380859	-456.0843811035156	323.4690246582031	809.0675048828125	-230.1105194091797	420.9493713378906	730.1967163085938	-264.5195007324219	345.7462158203125	711.1408081054688	-239.6934814453125	190.232421875	538.25927734375	-524.3689575195312	433.434814453125	567.83935546875	-286.5643310546875	12.63781642913818	414.619873046875	-528.1846313476562	-81.30168914794922	377.219970703125	-524.3682250976562	473.0612182617188	385.1088256835938	-263.7000122070312	-209.4863586425781	200.5126953125	-519.33203125	393.4997863769531	367.6920166015625	-273.664794921875	-263.0309753417969	373.7576293945312	-443.9606323242188	496.8277282714844	287.8460998535156	-275.8102416992188	419.4632873535156	271.7286071777344	-296.0967712402344	-197.2321624755859	346.1913757324219	-520.783935546875	500.2914123535156	147.9771575927734	-276.120849609375	690.535400390625	169.2668151855469	-339.7018127441406	453.3908081054688	84.23744201660156	-318.5178527832031	471.9308471679688	63.38215255737305	-351.9804077148438	466.0383911132812	60.61566925048828	-298.2146606445312	-270.8899536132812	368.8236389160156	-494.9942321777344
162	0.805	390.7586975097656	1537.703369140625	-566.0220947265625	299.3111877441406	1518.491943359375	-258.5397644042969	333.157470703125	1057.8349609375	-562.1156005859375	324.546142578125	1079.2294921875	-266.274169921875	375.796142578125	1017.818115234375	-536.3101196289062	-224.5314331054688	394.1039123535156	-477.3094482421875	363.1056823730469	1031.362426757812	-273.3904418945312	254.6224517822266	946.20654296875	-582.3751831054688	260.2425231933594	936.2224731445312	-244.0115051269531	210.7314453125	1086.38330078125	-411.997802734375	342.4792175292969	769.0690307617188	-542.1090087890625	-91.2085418701172	452.4825439453125	-503.2931823730469	269.1150512695312	782.4837646484375	-576.7445678710938	316.5317687988281	668.8863525390625	-528.1365966796875	660.6654052734375	132.5458068847656	-268.8793029785156	-2.581647634506226	492.0063171386719	-539.4192504882812	238.1795349121094	686.5670776367188	-555.3660888671875	411.5568542480469	826.7240600585938	-259.9797973632812	-147.5448608398438	155.8470458984375	-456.2922058105469	338.8925170898438	806.4871215820312	-229.9636535644531	437.3341979980469	728.2708740234375	-263.6514587402344	361.0541076660156	708.672119140625	-241.3154754638672	212.0064849853516	534.1038818359375	-524.4773559570312	448.8301086425781	565.8457641601562	-287.2825927734375	31.35933876037598	415.2994079589844	-528.47412109375	-63.55117797851562	379.5064086914062	-524.14013671875	487.3004150390625	381.7974548339844	-264.7041931152344	-194.9029388427734	206.1939697265625	-519.5352172851562	408.2280578613281	365.0596313476562	-273.553466796875	-244.5198516845703	380.84130859375	-443.8690795898438	510.6756286621094	284.6546630859375	-277.4161682128906	433.6488037109375	269.0401306152344	-295.4864807128906	-179.9695281982422	351.8150024414062	-520.7184448242188	513.5445556640625	144.4532165527344	-276.8844299316406	703.3700561523438	165.9253082275391	-340.5252990722656	466.062255859375	80.90196228027344	-319.4977722167969	484.7510681152344	60.15219116210938	-352.7386474609375	478.8840637207031	57.26700210571289	-299.6783752441406	-252.7359008789062	375.8882141113281	-494.7383728027344
163	0.81	406.8942565917969	1535.1435546875	-564.8920288085938	315.9258728027344	1514.987548828125	-257.4555358886719	348.8367919921875	1054.8564453125	-561.7857055664062	338.9259033203125	1076.78466796875	-266.3862915039062	391.507080078125	1015.08056640625	-536.1572265625	-205.3189086914062	400.3517150878906	-477.0504455566406	379.5603637695312	1028.81982421875	-272.3344421386719	270.9488830566406	942.2764282226562	-582.611328125	275.7625427246094	933.3834838867188	-244.1906890869141	225.8512573242188	1082.481323242188	-412.0682067871094	361.4320373535156	766.2387084960938	-542.9013671875	-70.67720794677734	455.2431640625	-502.7106018066406	286.400146484375	777.296630859375	-576.3416137695312	337.7471008300781	665.7772216796875	-529.4358520507812	672.3689575195312	128.3630523681641	-269.9751281738281	18.78443336486816	492.4572143554688	-539.0401000976562	258.2551879882812	682.23583984375	-555.5615844726562	427.7730407714844	825.2821044921875	-259.6820373535156	-133.6121368408203	160.4895324707031	-456.2966918945312	354.5998229980469	804.13671875	-230.0931396484375	454.6678161621094	727.3875732421875	-262.2587280273438	377.6138610839844	706.71826171875	-243.1202087402344	233.9640502929688	529.7281494140625	-525.1951904296875	464.1773071289062	563.5374145507812	-287.9028625488281	50.51531600952148	415.7976989746094	-529.043701171875	-45.05231094360352	381.8074340820312	-524.2366943359375	501.4355163574219	378.607666015625	-265.9187316894531	-179.7122497558594	212.1393585205078	-519.78466796875	421.8826293945312	362.1341857910156	-273.5847778320312	-225.3990783691406	387.7916259765625	-443.1920776367188	524.0692138671875	281.3556518554688	-278.3569946289062	446.0497741699219	266.1572265625	-295.5086059570312	-161.1912841796875	357.2551574707031	-521.729736328125	525.5919799804688	140.8437194824219	-277.9048767089844	715.0093383789062	162.1765594482422	-341.5505981445312	477.7850646972656	77.26897430419922	-320.3816223144531	496.37451171875	56.93616485595703	-354.25927734375	490.2242126464844	53.199462890625	-300.8046264648438	-233.9830169677734	382.9563598632812	-494.5177917480469
